<?xml version="1.0" encoding="UTF-8"?>
<svg width="16" height="16" viewBox="0 0 16 16" version="1.1" xmlns="http://www.w3.org/2000/svg" xmlns:xlink="http://www.w3.org/1999/xlink">
    <title>wink (1)</title>
    <g id="页面-1" stroke="none" stroke-width="1" fill="none" fill-rule="evenodd">
        <g id="方案5" transform="translate(-29.000000, -27.000000)" fill-rule="nonzero">
            <g id="wink-(1)" transform="translate(29.000000, 27.000000)">
                <path d="M8.48050052,12.3362168 C12.135975,11.4968422 14.9739312,9.56317884 16,6.98689956 C15.435245,12.074518 11.7889468,16 7.37518248,16 C4.26611053,16 1.53910323,14.0527671 0,11.1246483 C1.83607925,12.7927358 5.07194995,13.1184055 8.48050052,12.3362168 Z" id="形状" fill="#3078F1"></path>
                <g id="Flash-On" transform="translate(9.218107, 0.000000)" fill="#EBC700">
                    <path d="M4.10545524,0 C4.1975435,0 4.2840411,0.0678720491 4.33791647,0.182623507 C4.39179184,0.297374966 4.4064737,0.444928238 4.37737379,0.579171078 L4.37737379,0.579171078 L3.73882348,3.52079646 L5.4421335,3.52079646 C5.55694686,3.52090527 5.6606237,3.62634346 5.7055495,3.78868758 C5.75047529,3.95103169 5.72796783,4.13890764 5.64836386,4.2660317 L5.64836386,4.2660317 L1.06775839,11.6004374 C0.864201392,11.926111 0.511700232,11.6268433 0.583117045,11.189091 L0.583117045,11.189091 L1.25794862,7.04159284 L0.286374469,7.04159284 C0.196508315,7.04156437 0.111860414,6.97673424 0.0577487834,6.866493 C0.00363715252,6.75625176 -0.0136644862,6.61338084 0.0110187524,6.48061262 L0.0110187524,6.48061262 L1.15674298,0.319218949 C1.19186459,0.130303926 1.30422874,0 1.4320987,0 L1.4320987,0 Z" id="形状"></path>
                </g>
                <g id="三角形1" transform="translate(1.646091, 2.026201)" fill="#0F8A23">
                    <path d="M2.59935454,1.11997548 L-0.673650515,6.20636308 C-0.941331225,6.62191253 -0.606730337,7.14193407 -0.0713689162,7.14193407 L6.47551028,7.14193407 C7.0108717,7.14193407 7.34547259,6.62191253 7.07779188,6.20636308 L3.80391773,1.11997548 C3.53623702,0.704426032 2.86703525,0.704426032 2.59935454,1.11997548 Z" id="路径" transform="translate(3.202071, 3.975124) rotate(90.000000) translate(-3.202071, -3.975124) "></path>
                </g>
            </g>
        </g>
    </g>
</svg>