<?xml version="1.0" encoding="UTF-8"?>
<svg width="200" height="200" viewBox="0 0 243 248" version="1.1" xmlns="http://www.w3.org/2000/svg" xmlns:xlink="http://www.w3.org/1999/xlink">
    <title>wink (1)</title>
    <g id="页面-1" stroke="none" stroke-width="1" fill="none" fill-rule="evenodd">
        <g id="方案4" transform="translate(-29.000000, -30.000000)" fill-rule="nonzero">
            <g id="wink-(1)" transform="translate(29.000000, 30.000000)">
                <path d="M128.797602,195.562103 C184.31512,183.548554 227.41658,155.872997 243,119 C234.422784,191.816539 179.04463,248 112.010584,248 C64.7915537,248 23.3751303,220.130229 0,178.221529 C27.8854536,202.096032 77.0302398,206.757178 128.797602,195.562103 Z M19,87.5 C19,105.541912 27.9581494,122.213327 42.5,131.234283 C57.0418506,140.255239 74.9581494,140.255239 89.5,131.234283 C104.041851,122.213327 113,105.541912 113,87.5 C113,59.6096201 91.9573832,37 66,37 C40.0426168,37 19,59.6096201 19,87.5 Z" id="形状" fill="#3078F1"></path>
                <g id="Flash-On" transform="translate(135.000000, 0.000000)" fill="#EBC700">
                    <path d="M62.3516014,0 C63.7501919,0 65.0638743,0.971418702 65.8821064,2.61379895 C66.7003385,4.2561792 66.9233193,6.36803541 66.4813644,8.28938605 L66.4813644,8.28938605 L56.7833816,50.3913993 L82.6524025,50.3913993 C84.3961304,50.3929567 85.9707225,51.9020407 86.653033,54.2255909 C87.3353435,56.5491411 86.9935114,59.2381157 85.7845261,61.0575786 L85.7845261,61.0575786 L16.2165806,166.03126 C13.1250586,170.692464 7.77144727,166.409195 8.85609012,160.143865 L8.85609012,160.143865 L19.1050946,100.782798 L4.34931226,100.782798 C2.98447003,100.78239 1.69888004,99.8545087 0.877059648,98.2766811 C0.0552392539,96.6988534 -0.207529384,94.6540132 0.167347302,92.7537681 L0.167347302,92.7537681 L17.568034,4.56882121 C18.1014435,1.86497494 19.8079739,0 21.749999,0 L21.749999,0 Z" id="形状"></path>
                </g>
            </g>
        </g>
    </g>
</svg>